<svg xmlns="http://www.w3.org/2000/svg" width="32" height="32" fill="#f36c21" fill-rule="evenodd"><path d="m1.93 20.1 1.25-8.934h1.652l-1.025 7.33H6.54L6.315 20.1H1.93zm21.531 0 1.25-8.934h2.499c1.021.009 1.773.259 2.262.757s.666 1.176.549 2.037a3.07 3.07 0 0 1-1.09 1.993c-.61.514-1.444.774-2.5.774h-.848l-.471 3.377H23.46V20.1zm2.677-7.33-.329 2.352h.982c.454 0 .813-.099 1.081-.29s.437-.489.497-.882-.026-.679-.246-.878-.554-.298-1.008-.298h-.977v-.004zm-12.321.263 2.063-7.697h-1.955l-2.94 10.958c-.147.54.177.977.713.977h4.272l.623-1.955h-3.395l.618-2.283zm4.978-.199c.541 0 .861.437.718.977l-1.423 4.951c-.143.541-.696.977-1.237.977h-2.564l-1.276 4.753h.523l-2.162 2.171-.921-2.171h.601l1.544-5.725c.143-.541.696-.977 1.237-.977h2.564l.895-2.997H13.96l.51-1.955h4.324v-.004z"/><path d="M11.407 20.969a6.27 6.27 0 0 1-2.711-5.167 6.284 6.284 0 0 1 6.063-6.279l.471-1.76c-.073 0-.147-.004-.225-.004a8.01 8.01 0 0 0-8.009 8.009 7.994 7.994 0 0 0 3.952 6.902l.458-1.7zm4.416-13.172-.463 1.73a6.28 6.28 0 0 1 5.903 6.27 6.283 6.283 0 0 1-6.283 6.283 6.24 6.24 0 0 1-3.057-.796l-.445 1.665a8 8 0 0 0 3.533.822 8.01 8.01 0 0 0 8.009-8.009 8.02 8.02 0 0 0-7.196-7.965z"/></svg>